; Drill file
; Format: 3.2 (000.00)
M48
METRIC
T01C0.4
T02C0.6
%
G05
G90
T01
X00698Y01278
X00698Y01468
X00698Y01658
X01400Y00900
X02730Y00896
X02725Y00625
X03000Y00750
X03000Y01000
X03000Y01250
X03000Y01500
X03000Y01750
X03000Y02000
X03000Y02250
X03000Y02500
X02667Y02548
X02667Y02802
X03425Y02500
X04225Y02000
X04550Y02000
X04750Y02000
X04750Y01750
X04750Y01500
X04750Y01250
X04750Y01000
X04750Y00750
X05000Y00750
X05000Y01000
X05000Y01250
X05000Y01500
X05000Y01750
X05000Y02000
X05000Y02250
X05000Y02500
X04750Y02500
X04750Y02250
X04500Y02500
X05425Y02500
X06225Y02000
X06550Y02000
X06750Y02000
X07000Y02000
X07000Y02250
X07000Y02500
X06750Y02500
X06750Y02250
X06500Y02500
X06750Y01750
X07000Y01750
X07000Y01500
X07000Y01250
X07000Y01000
X07000Y00750
X06750Y00750
X06750Y01000
X06750Y01250
X06750Y01500
X06225Y01125
X06075Y01250
X06000Y01500
X05800Y01500
X05450Y01000
X04225Y01125
X04075Y01250
X04000Y01500
X03800Y01500
X03450Y01000
X03300Y00750
X02667Y01532
X07450Y01000
X07800Y01500
X08000Y01500
X08075Y01250
X08225Y01125
X08750Y01250
X08750Y01500
X08750Y01750
X08750Y02000
X08550Y02000
X08750Y02250
X08750Y02500
X09000Y02500
X09000Y02250
X09000Y02000
X09000Y01750
X09000Y01500
X09000Y01250
X09000Y01000
X09000Y00750
X08750Y00750
X08750Y01000
X09450Y01000
X09800Y01500
X10000Y01500
X10075Y01250
X10225Y01125
X10750Y01250
X10750Y01500
X10750Y01750
X10750Y02000
X10550Y02000
X10750Y02250
X10750Y02500
X11301Y02155
X11301Y01901
X11301Y01647
X11301Y01393
X11301Y01139
X10750Y01000
X10750Y00750
X10225Y02000
X09425Y02500
X08500Y02500
X08225Y02000
X07425Y02500
T02
X01710Y00640
X01710Y00894
X01710Y01148
X01710Y01402
X01710Y01656
X01710Y01910
X01710Y02164
X01710Y02418
X01710Y02672
X02472Y02672
X02472Y02418
X02472Y02164
X02472Y01910
X02472Y01656
X02472Y01402
X02472Y01148
X02472Y00894
X02472Y00640
M30
