%FSLAX34Y34*%
%MOMM*%
%LNCOPPER_TOP*%
G71*
G01*
%ADD10C, 1.600*%
%ADD11C, 0.400*%
%ADD12C, 1.400*%
%ADD13C, 1.600*%
%LPD*%
X700000Y250000D02*
G54D10*
D03*
X700000Y225000D02*
G54D10*
D03*
X700000Y200000D02*
G54D10*
D03*
X700000Y175000D02*
G54D10*
D03*
X700000Y150000D02*
G54D10*
D03*
X700000Y125000D02*
G54D10*
D03*
X700000Y100000D02*
G54D10*
D03*
X700000Y75000D02*
G54D10*
D03*
X875000Y250000D02*
G54D10*
D03*
X875000Y225000D02*
G54D10*
D03*
X875000Y200000D02*
G54D10*
D03*
X875000Y175000D02*
G54D10*
D03*
X875000Y150000D02*
G54D10*
D03*
X875000Y125000D02*
G54D10*
D03*
X875000Y100000D02*
G54D10*
D03*
X875000Y75000D02*
G54D10*
D03*
G54D11*
X700000Y175000D02*
X712500Y187500D01*
X887500Y187500D01*
G54D11*
X700000Y125000D02*
X712500Y137500D01*
X887500Y137500D01*
G54D11*
X700000Y250000D02*
X712500Y262500D01*
X887500Y262500D01*
G54D11*
X875000Y250000D02*
X887500Y237500D01*
G54D11*
X875000Y225000D02*
X887500Y212500D01*
G54D11*
X875000Y175000D02*
X887500Y162500D01*
G54D11*
X875000Y100000D02*
X887500Y87500D01*
G54D11*
X875000Y75000D02*
X887500Y62500D01*
G54D11*
X687500Y112500D02*
X887500Y112500D01*
X745000Y100000D02*
G54D12*
D03*
X780000Y150000D02*
G54D12*
D03*
X800000Y150000D02*
G54D12*
D03*
X807500Y125000D02*
G54D12*
D03*
X822500Y112500D02*
G54D12*
D03*
G54D11*
X800000Y150000D02*
X875000Y150000D01*
G54D11*
X807500Y125000D02*
X875000Y125000D01*
G54D11*
X780000Y150000D02*
X700000Y150000D01*
X822500Y200000D02*
G54D12*
D03*
X855000Y200000D02*
G54D12*
D03*
G54D11*
X822500Y200000D02*
X855000Y200000D01*
X742500Y250000D02*
G54D12*
D03*
G54D11*
X700000Y250000D02*
X687500Y262500D01*
G54D11*
X875000Y250000D02*
X862500Y237500D01*
X687500Y237500D01*
G54D11*
X875000Y225000D02*
X862500Y212500D01*
X687500Y212500D01*
G54D11*
X700000Y175000D02*
X687500Y187500D01*
G54D11*
X875000Y175000D02*
X862500Y162500D01*
X687500Y162500D01*
G54D11*
X700000Y125000D02*
X687500Y137500D01*
G54D11*
X875000Y100000D02*
X862500Y87500D01*
X687500Y87500D01*
G54D11*
X875000Y75000D02*
X862500Y62500D01*
X687500Y62500D01*
X500000Y250000D02*
G54D10*
D03*
X500000Y225000D02*
G54D10*
D03*
X500000Y200000D02*
G54D10*
D03*
X500000Y175000D02*
G54D10*
D03*
X500000Y150000D02*
G54D10*
D03*
X500000Y125000D02*
G54D10*
D03*
X500000Y100000D02*
G54D10*
D03*
X500000Y75000D02*
G54D10*
D03*
X675000Y250000D02*
G54D10*
D03*
X675000Y225000D02*
G54D10*
D03*
X675000Y200000D02*
G54D10*
D03*
X675000Y175000D02*
G54D10*
D03*
X675000Y150000D02*
G54D10*
D03*
X675000Y125000D02*
G54D10*
D03*
X675000Y100000D02*
G54D10*
D03*
X675000Y75000D02*
G54D10*
D03*
G54D11*
X500000Y175000D02*
X512500Y187500D01*
X687500Y187500D01*
G54D11*
X500000Y125000D02*
X512500Y137500D01*
X687500Y137500D01*
G54D11*
X500000Y250000D02*
X512500Y262500D01*
X687500Y262500D01*
G54D11*
X675000Y250000D02*
X687500Y237500D01*
G54D11*
X675000Y225000D02*
X687500Y212500D01*
G54D11*
X675000Y175000D02*
X687500Y162500D01*
G54D11*
X675000Y100000D02*
X687500Y87500D01*
G54D11*
X675000Y75000D02*
X687500Y62500D01*
G54D11*
X487500Y112500D02*
X687500Y112500D01*
X545000Y100000D02*
G54D12*
D03*
X580000Y150000D02*
G54D12*
D03*
X600000Y150000D02*
G54D12*
D03*
X607500Y125000D02*
G54D12*
D03*
X622500Y112500D02*
G54D12*
D03*
G54D11*
X600000Y150000D02*
X675000Y150000D01*
G54D11*
X607500Y125000D02*
X675000Y125000D01*
G54D11*
X580000Y150000D02*
X500000Y150000D01*
X622500Y200000D02*
G54D12*
D03*
X655000Y200000D02*
G54D12*
D03*
G54D11*
X622500Y200000D02*
X655000Y200000D01*
X542500Y250000D02*
G54D12*
D03*
G54D11*
X500000Y250000D02*
X487500Y262500D01*
G54D11*
X675000Y250000D02*
X662500Y237500D01*
X487500Y237500D01*
G54D11*
X675000Y225000D02*
X662500Y212500D01*
X487500Y212500D01*
G54D11*
X500000Y175000D02*
X487500Y187500D01*
G54D11*
X675000Y175000D02*
X662500Y162500D01*
X487500Y162500D01*
G54D11*
X500000Y125000D02*
X487500Y137500D01*
G54D11*
X675000Y100000D02*
X662500Y87500D01*
X487500Y87500D01*
G54D11*
X675000Y75000D02*
X662500Y62500D01*
X487500Y62500D01*
X300000Y250000D02*
G54D10*
D03*
X300000Y225000D02*
G54D10*
D03*
X300000Y200000D02*
G54D10*
D03*
X300000Y175000D02*
G54D10*
D03*
X300000Y150000D02*
G54D10*
D03*
X300000Y125000D02*
G54D10*
D03*
X300000Y100000D02*
G54D10*
D03*
X300000Y75000D02*
G54D10*
D03*
X475000Y250000D02*
G54D10*
D03*
X475000Y225000D02*
G54D10*
D03*
X475000Y200000D02*
G54D10*
D03*
X475000Y175000D02*
G54D10*
D03*
X475000Y150000D02*
G54D10*
D03*
X475000Y125000D02*
G54D10*
D03*
X475000Y100000D02*
G54D10*
D03*
X475000Y75000D02*
G54D10*
D03*
G54D11*
X300000Y175000D02*
X312500Y187500D01*
X487500Y187500D01*
G54D11*
X300000Y125000D02*
X312500Y137500D01*
X487500Y137500D01*
G54D11*
X300000Y250000D02*
X312500Y262500D01*
X487500Y262500D01*
G54D11*
X475000Y250000D02*
X487500Y237500D01*
G54D11*
X475000Y225000D02*
X487500Y212500D01*
G54D11*
X475000Y175000D02*
X487500Y162500D01*
G54D11*
X475000Y100000D02*
X487500Y87500D01*
G54D11*
X475000Y75000D02*
X487500Y62500D01*
G54D11*
X422500Y112500D02*
X487500Y112500D01*
X345000Y100000D02*
G54D12*
D03*
X380000Y150000D02*
G54D12*
D03*
X400000Y150000D02*
G54D12*
D03*
X407500Y125000D02*
G54D12*
D03*
X422500Y112500D02*
G54D12*
D03*
G54D11*
X400000Y150000D02*
X475000Y150000D01*
G54D11*
X407500Y125000D02*
X475000Y125000D01*
G54D11*
X380000Y150000D02*
X300000Y150000D01*
X422500Y200000D02*
G54D12*
D03*
X455000Y200000D02*
G54D12*
D03*
G54D11*
X422500Y200000D02*
X455000Y200000D01*
X342500Y250000D02*
G54D12*
D03*
G54D11*
X475000Y250000D02*
X462500Y237500D01*
X287500Y237500D01*
G54D11*
X475000Y225000D02*
X462500Y212500D01*
X287500Y212500D01*
G54D11*
X475000Y175000D02*
X462500Y162500D01*
X287500Y162500D01*
G54D11*
X475000Y100000D02*
X462500Y87500D01*
X290000Y87500D01*
G54D11*
X475000Y75000D02*
X462500Y62500D01*
X290000Y62500D01*
X900000Y250000D02*
G54D10*
D03*
X900000Y225000D02*
G54D10*
D03*
X900000Y200000D02*
G54D10*
D03*
X900000Y175000D02*
G54D10*
D03*
X900000Y150000D02*
G54D10*
D03*
X900000Y125000D02*
G54D10*
D03*
X900000Y100000D02*
G54D10*
D03*
X900000Y75000D02*
G54D10*
D03*
X1075000Y250000D02*
G54D10*
D03*
X1075000Y225000D02*
G54D10*
D03*
X1075000Y200000D02*
G54D10*
D03*
X1075000Y175000D02*
G54D10*
D03*
X1075000Y150000D02*
G54D10*
D03*
X1075000Y125000D02*
G54D10*
D03*
X1075000Y100000D02*
G54D10*
D03*
X1075000Y75000D02*
G54D10*
D03*
G54D11*
X887500Y112500D02*
X1100000Y112500D01*
X945000Y100000D02*
G54D12*
D03*
X980000Y150000D02*
G54D12*
D03*
X1000000Y150000D02*
G54D12*
D03*
X1007500Y125000D02*
G54D12*
D03*
X1022500Y112500D02*
G54D12*
D03*
G54D11*
X1000000Y150000D02*
X1075000Y150000D01*
G54D11*
X1007500Y125000D02*
X1075000Y125000D01*
G54D11*
X980000Y150000D02*
X900000Y150000D01*
X1022500Y200000D02*
G54D12*
D03*
X1055000Y200000D02*
G54D12*
D03*
G54D11*
X1022500Y200000D02*
X1055000Y200000D01*
X942500Y250000D02*
G54D12*
D03*
G54D11*
X900000Y250000D02*
X887500Y262500D01*
G54D11*
X1075000Y250000D02*
X1062500Y237500D01*
X887500Y237500D01*
G54D11*
X1075000Y225000D02*
X1062500Y212500D01*
X887500Y212500D01*
G54D11*
X900000Y175000D02*
X887500Y187500D01*
G54D11*
X1075000Y175000D02*
X1062500Y162500D01*
X887500Y162500D01*
G54D11*
X900000Y125000D02*
X887500Y137500D01*
G54D11*
X1075000Y100000D02*
X1062500Y87500D01*
X887500Y87500D01*
G54D11*
X1075000Y75000D02*
X1062500Y62500D01*
X887500Y62500D01*
G54D11*
X345000Y100000D02*
X300000Y100000D01*
G54D11*
X545000Y100000D02*
X500000Y100000D01*
G54D11*
X745000Y100000D02*
X700000Y100000D01*
G54D11*
X945000Y100000D02*
X900000Y100000D01*
G54D11*
X342500Y250000D02*
X450000Y250000D01*
X450000Y250000D02*
G54D12*
D03*
X650000Y250000D02*
G54D12*
D03*
X850000Y250000D02*
G54D12*
D03*
G54D11*
X542500Y250000D02*
X650000Y250000D01*
G54D11*
X742500Y250000D02*
X850000Y250000D01*
G54D11*
X942500Y250000D02*
X1050000Y250000D01*
G36*
X179000Y275200D02*
X179000Y259200D01*
X163000Y259200D01*
X163000Y275200D01*
X179000Y275200D01*
G37*
X171000Y241800D02*
G54D13*
D03*
X171000Y216400D02*
G54D13*
D03*
X171000Y191000D02*
G54D13*
D03*
X171000Y165600D02*
G54D13*
D03*
X171000Y140200D02*
G54D13*
D03*
X171000Y114800D02*
G54D13*
D03*
X171000Y89400D02*
G54D13*
D03*
X171000Y64000D02*
G54D13*
D03*
X247200Y64000D02*
G54D13*
D03*
X247200Y89400D02*
G54D13*
D03*
X247200Y114800D02*
G54D13*
D03*
X247200Y140200D02*
G54D13*
D03*
X247200Y165600D02*
G54D13*
D03*
X247200Y191000D02*
G54D13*
D03*
X247200Y216400D02*
G54D13*
D03*
X247200Y241800D02*
G54D13*
D03*
X247200Y267200D02*
G54D13*
D03*
G54D11*
X247200Y267200D02*
X282800Y267200D01*
X300000Y250000D01*
G54D11*
X247200Y216400D02*
X266400Y216400D01*
X287500Y237500D01*
G54D11*
X247200Y191000D02*
X284000Y191000D01*
X300000Y175000D01*
G54D11*
X247200Y140200D02*
X235475Y140200D01*
X227288Y148388D01*
X227288Y197600D01*
X233638Y203950D01*
G54D11*
X247200Y241800D02*
X228625Y241800D01*
X216175Y229350D01*
X216175Y143625D01*
X232050Y127750D01*
X266700Y153150D02*
G54D12*
D03*
X273050Y89650D02*
G54D12*
D03*
X330000Y75000D02*
G54D12*
D03*
G54D11*
X300000Y75000D02*
X330000Y75000D01*
G54D11*
X233638Y203950D02*
X278950Y203950D01*
X287500Y212500D01*
G54D11*
X232050Y127750D02*
X297250Y127750D01*
X300000Y125000D01*
X140000Y90000D02*
G54D12*
D03*
G54D11*
X287500Y162500D02*
X276050Y162500D01*
X266700Y153150D01*
G54D11*
X290000Y87500D02*
X272500Y115000D01*
X247400Y115000D01*
X247200Y114800D01*
G54D11*
X273050Y89650D02*
X273050Y89450D01*
X285000Y77500D01*
X285000Y67500D01*
X290000Y62500D01*
X272500Y62500D02*
G54D12*
D03*
G54D11*
X203200Y76950D02*
X258050Y76950D01*
X272500Y62500D01*
G54D11*
X140000Y90000D02*
X140000Y89350D01*
X152400Y76950D01*
X203200Y76950D01*
X266700Y254750D02*
G54D12*
D03*
X69850Y146800D02*
G54D12*
D03*
X69850Y165850D02*
G54D12*
D03*
X69850Y127750D02*
G54D12*
D03*
G54D11*
X140000Y90000D02*
X75850Y90000D01*
X57150Y108700D01*
X57150Y159500D01*
G54D11*
X69850Y165850D02*
X63500Y165850D01*
X57150Y159500D01*
G54D11*
X266700Y254750D02*
X222250Y254750D01*
X203200Y235700D01*
X203200Y140450D01*
X190500Y127750D01*
X69850Y127750D01*
X266700Y280150D02*
G54D12*
D03*
G54D11*
X266700Y280150D02*
X228600Y280150D01*
X190500Y242050D01*
X190500Y159500D01*
X184150Y153150D01*
X88900Y153150D01*
X82550Y146800D01*
X69850Y146800D01*
X1130100Y215500D02*
G54D12*
D03*
X1130100Y190100D02*
G54D12*
D03*
X1130100Y164700D02*
G54D12*
D03*
X1130100Y139300D02*
G54D12*
D03*
X1130100Y113900D02*
G54D12*
D03*
G54D11*
X1100000Y112500D02*
X1128700Y112500D01*
X1130100Y113900D01*
G54D11*
X1050000Y250000D02*
X1065000Y265000D01*
X1082500Y265000D01*
X1097500Y250000D01*
X1097500Y202500D01*
X1110000Y190000D01*
X1130000Y190000D01*
X1130100Y190100D01*
M02*
