%FSLAX34Y34*%
%MOMM*%
%LNSILK_TOP*%
G71*
G01*
%ADD10C, 0.222*%
%ADD11C, 0.150*%
%LPD*%
G54D10*
X870000Y38611D02*
X876667Y45278D01*
X876667Y27500D01*
G54D10*
X876667Y288889D02*
X874000Y288889D01*
X871333Y290000D01*
X870000Y292222D01*
X870000Y294444D01*
X871333Y296667D01*
X874000Y297778D01*
X876667Y297778D01*
X879333Y296667D01*
X880667Y294444D01*
X880667Y292222D01*
X879333Y290000D01*
X876667Y288889D01*
X879333Y287778D01*
X880667Y285556D01*
X880667Y283333D01*
X879333Y281111D01*
X876667Y280000D01*
X874000Y280000D01*
X871333Y281111D01*
X870000Y283333D01*
X870000Y285556D01*
X871333Y287778D01*
X874000Y288889D01*
G54D10*
X695000Y283333D02*
X696333Y281111D01*
X699000Y280000D01*
X701667Y280000D01*
X704333Y281111D01*
X705667Y283333D01*
X705667Y288889D01*
X705667Y290000D01*
X701667Y287778D01*
X699000Y287778D01*
X696333Y288889D01*
X695000Y291111D01*
X695000Y294444D01*
X696333Y296667D01*
X699000Y297778D01*
X701667Y297778D01*
X704333Y296667D01*
X705667Y294444D01*
X705667Y288889D01*
G54D10*
X687500Y38611D02*
X694167Y45278D01*
X694167Y27500D01*
G54D10*
X709723Y41945D02*
X708389Y44167D01*
X705723Y45278D01*
X703056Y45278D01*
X700389Y44167D01*
X699056Y41945D01*
X699056Y36389D01*
X699056Y35278D01*
X703056Y37500D01*
X705723Y37500D01*
X708389Y36389D01*
X709723Y34167D01*
X709723Y30833D01*
X708389Y28611D01*
X705723Y27500D01*
X703056Y27500D01*
X700389Y28611D01*
X699056Y30833D01*
X699056Y36389D01*
G54D10*
X670000Y38612D02*
X676667Y45278D01*
X676667Y27500D01*
G54D10*
X676667Y288889D02*
X674000Y288889D01*
X671333Y290000D01*
X670000Y292222D01*
X670000Y294444D01*
X671333Y296667D01*
X674000Y297778D01*
X676667Y297778D01*
X679333Y296667D01*
X680667Y294444D01*
X680667Y292222D01*
X679333Y290000D01*
X676667Y288889D01*
X679333Y287778D01*
X680667Y285556D01*
X680667Y283333D01*
X679333Y281111D01*
X676667Y280000D01*
X674000Y280000D01*
X671333Y281111D01*
X670000Y283333D01*
X670000Y285556D01*
X671333Y287778D01*
X674000Y288889D01*
G54D10*
X495000Y283333D02*
X496333Y281111D01*
X499000Y280000D01*
X501667Y280000D01*
X504333Y281111D01*
X505667Y283333D01*
X505667Y288889D01*
X505667Y290000D01*
X501667Y287778D01*
X499000Y287778D01*
X496333Y288889D01*
X495000Y291111D01*
X495000Y294444D01*
X496333Y296667D01*
X499000Y297778D01*
X501667Y297778D01*
X504333Y296667D01*
X505667Y294444D01*
X505667Y288889D01*
G54D10*
X487500Y38612D02*
X494167Y45278D01*
X494167Y27500D01*
G54D10*
X509723Y41945D02*
X508389Y44167D01*
X505723Y45278D01*
X503056Y45278D01*
X500389Y44167D01*
X499056Y41945D01*
X499056Y36389D01*
X499056Y35278D01*
X503056Y37500D01*
X505723Y37500D01*
X508389Y36389D01*
X509723Y34167D01*
X509723Y30834D01*
X508389Y28612D01*
X505723Y27500D01*
X503056Y27500D01*
X500389Y28612D01*
X499056Y30834D01*
X499056Y36389D01*
G54D10*
X470000Y38612D02*
X476667Y45278D01*
X476667Y27500D01*
G54D10*
X476667Y288889D02*
X474000Y288889D01*
X471333Y290000D01*
X470000Y292222D01*
X470000Y294444D01*
X471333Y296667D01*
X474000Y297778D01*
X476667Y297778D01*
X479333Y296667D01*
X480667Y294444D01*
X480667Y292222D01*
X479333Y290000D01*
X476667Y288889D01*
X479333Y287778D01*
X480667Y285556D01*
X480667Y283333D01*
X479333Y281111D01*
X476667Y280000D01*
X474000Y280000D01*
X471333Y281111D01*
X470000Y283333D01*
X470000Y285556D01*
X471333Y287778D01*
X474000Y288889D01*
G54D10*
X295000Y283333D02*
X296333Y281111D01*
X299000Y280000D01*
X301667Y280000D01*
X304333Y281111D01*
X305667Y283333D01*
X305667Y288889D01*
X305667Y290000D01*
X301667Y287778D01*
X299000Y287778D01*
X296333Y288889D01*
X295000Y291111D01*
X295000Y294444D01*
X296333Y296667D01*
X299000Y297778D01*
X301667Y297778D01*
X304333Y296667D01*
X305667Y294444D01*
X305667Y288889D01*
G54D10*
X287500Y38612D02*
X294167Y45278D01*
X294167Y27500D01*
G54D10*
X309723Y41945D02*
X308389Y44167D01*
X305723Y45278D01*
X303056Y45278D01*
X300389Y44167D01*
X299056Y41945D01*
X299056Y36389D01*
X299056Y35278D01*
X303056Y37500D01*
X305723Y37500D01*
X308389Y36389D01*
X309723Y34167D01*
X309723Y30834D01*
X308389Y28612D01*
X305723Y27500D01*
X303056Y27500D01*
X300389Y28612D01*
X299056Y30834D01*
X299056Y36389D01*
G54D10*
X1070000Y38612D02*
X1076667Y45278D01*
X1076667Y27500D01*
G54D10*
X1076667Y288889D02*
X1074000Y288889D01*
X1071333Y290000D01*
X1070000Y292222D01*
X1070000Y294444D01*
X1071333Y296667D01*
X1074000Y297778D01*
X1076667Y297778D01*
X1079333Y296667D01*
X1080667Y294444D01*
X1080667Y292222D01*
X1079333Y290000D01*
X1076667Y288889D01*
X1079333Y287778D01*
X1080667Y285556D01*
X1080667Y283333D01*
X1079333Y281111D01*
X1076667Y280000D01*
X1074000Y280000D01*
X1071333Y281111D01*
X1070000Y283333D01*
X1070000Y285556D01*
X1071333Y287778D01*
X1074000Y288889D01*
G54D10*
X895000Y283333D02*
X896333Y281111D01*
X899000Y280000D01*
X901667Y280000D01*
X904333Y281111D01*
X905667Y283333D01*
X905667Y288889D01*
X905667Y290000D01*
X901667Y287778D01*
X899000Y287778D01*
X896333Y288889D01*
X895000Y291111D01*
X895000Y294444D01*
X896333Y296667D01*
X899000Y297778D01*
X901667Y297778D01*
X904333Y296667D01*
X905667Y294444D01*
X905667Y288889D01*
G54D10*
X887500Y38612D02*
X894167Y45278D01*
X894167Y27500D01*
G54D10*
X909723Y41945D02*
X908389Y44167D01*
X905723Y45278D01*
X903056Y45278D01*
X900389Y44167D01*
X899056Y41945D01*
X899056Y36389D01*
X899056Y35278D01*
X903056Y37500D01*
X905723Y37500D01*
X908389Y36389D01*
X909723Y34167D01*
X909723Y30834D01*
X908389Y28612D01*
X905723Y27500D01*
X903056Y27500D01*
X900389Y28612D01*
X899056Y30834D01*
X899056Y36389D01*
G54D11*
X234500Y279900D02*
X183700Y279900D01*
X183700Y51300D01*
X234500Y51300D01*
X234500Y279900D01*
G54D11*
X221800Y279900D02*
X196400Y279900D01*
X196400Y267200D01*
X221800Y267200D01*
X221800Y279900D01*
M02*
